<svg width="256" height="256" viewBox="0 0 256 256" fill="none" xmlns="http://www.w3.org/2000/svg">
<path d="M132.211 32C138.047 32 142.777 36.7755 142.777 42.6664V109.543L200.148 76.1047C205.202 73.1592 211.666 74.9076 214.584 80.0094C217.501 85.111 215.767 91.6352 210.714 94.5805L149.427 130.297L199.456 180.802C203.582 184.968 203.582 191.721 199.456 195.887C195.33 200.052 188.641 200.052 184.515 195.887L142.777 153.753V213.334C142.777 219.225 138.047 224 132.211 224C126.376 224 121.646 219.224 121.646 213.334V146.49L64.3045 179.912C59.2508 182.857 52.7872 181.111 49.8693 176.009C46.9515 170.908 48.685 164.384 53.7388 161.438L104.86 131.64L47.8347 116.225C42.1977 114.701 38.852 108.853 40.3628 103.163C41.8736 97.4733 47.6677 94.0951 53.3045 95.6188L121.646 114.095V42.6664C121.646 36.7756 126.376 32.0002 132.211 32Z" fill="#0F0F0F"/>
</svg>
